<?xml version="1.0" encoding="UTF-8" standalone="no"?>
<svg
   viewBox="0 0 25 40"
   x="0px"
   y="0px"
   version="1.1"
   id="svg5"
   width="25"
   height="40"
   sodipodi:docname="logo_light.svg"
   inkscape:version="1.3.2 (091e20e, 2023-11-25, custom)"
   xmlns:inkscape="http://www.inkscape.org/namespaces/inkscape"
   xmlns:sodipodi="http://sodipodi.sourceforge.net/DTD/sodipodi-0.dtd"
   xmlns="http://www.w3.org/2000/svg"
   xmlns:svg="http://www.w3.org/2000/svg"
   xmlns:rdf="http://www.w3.org/1999/02/22-rdf-syntax-ns#"
   xmlns:cc="http://creativecommons.org/ns#"
   xmlns:dc="http://purl.org/dc/elements/1.1/">
  <sodipodi:namedview
     id="namedview1"
     pagecolor="#ffffff"
     bordercolor="#000000"
     borderopacity="0.25"
     inkscape:showpageshadow="2"
     inkscape:pageopacity="0.0"
     inkscape:pagecheckerboard="0"
     inkscape:deskcolor="#d1d1d1"
     inkscape:zoom="20.325"
     inkscape:cx="12.521525"
     inkscape:cy="20"
     inkscape:window-width="1920"
     inkscape:window-height="1009"
     inkscape:window-x="-8"
     inkscape:window-y="-8"
     inkscape:window-maximized="1"
     inkscape:current-layer="svg5" />
  <defs
     id="defs5" />
  <title
     id="title1">logo_dark</title>
  <g
     id="g5"
     transform="translate(-0.13278046,0.03526043)"
     style="fill:#bae6fd;fill-opacity:1">
    <path
       d="M 5.1580551,12.492174 16.844191,0.80603648 A 1.0217437,1.0217437 0 0 1 17.8325,0.54088058 20.159779,20.159779 0 0 1 22.846355,2.6332006 1.0708739,1.0708739 0 0 1 23.347716,3.3853029 1.0850075,1.0850075 0 0 1 23.053635,4.2386223 L 9.9790688,17.313187 a 3.7564685,3.7564685 0 0 0 0,5.303115 1.0213279,1.0213279 0 0 1 0,1.446304 l -3.3747094,3.37471 a 1.0213279,1.0213279 0 0 1 -1.4463043,0 10.576927,10.576927 0 0 1 0,-14.945142 z"
       id="path1"
       style="fill:#bae6fd;fill-opacity:1;stroke-width:0.681795" />
    <path
       d="M 20.103198,27.437316 8.4170601,39.123454 A 1.0218324,1.0218324 0 0 1 7.4287528,39.388609 20.161046,20.161046 0 0 1 2.4148985,37.296288 1.0066488,1.0066488 0 0 1 1.9617231,36.72741 1.0321547,1.0321547 0 0 1 2.2075948,35.690891 L 15.282185,22.616302 a 3.7564956,3.7564956 0 0 0 0,-5.303115 1.0213279,1.0213279 0 0 1 0,-1.446304 l 3.374709,-3.374709 a 1.0213279,1.0213279 0 0 1 1.446304,0 10.576927,10.576927 0 0 1 0,14.945142 z"
       id="path2"
       style="fill:#bae6fd;fill-opacity:1;stroke-width:0.681795" />
  </g>
  <metadata
     id="metadata5">
    <rdf:RDF>
      <cc:Work
         rdf:about="">
        <dc:title>logo_dark</dc:title>
      </cc:Work>
    </rdf:RDF>
  </metadata>
</svg>
